PathFileType	4	(X/Y/Z)	OpenSim_Sub06_EMGBaseline_Magnet.trc
DataRate	CameraRate	NumFrames	NumMarkers	Units	OrigDataRate	OrigDataStartFrame	OrigNumFrames
100	100	36	8	m	100	5169	8270
Frame#	Time	torso_imu_offset_imu	pelvis_imu_offset_imu	tibia_r_imu_offset_imu	femur_r_imu_offset_imu	tibia_l_imu_offset_imu	femur_l_imu_offset_imu	toes_r_imu_offset_imu	toes_l_imu_offset_imu
				X1	Y1	Z1	X2	Y2	Z2	X3	Y3	Z3	X4	Y4	Z4	X5	Y5	Z5	X6	Y6	Z6	X7	Y7	Z7	X8		Y8	Z8	

5169	51.68000000	-0.92996692	-0.16456788	0.05668545	-0.55355082	0.20220925	-0.71676295	-0.17227576	-0.71693316	-0.37050605	-0.83504141	-0.13747686	0.00418581	-0.64256020	0.48136697	0.14947409	-0.67807358	0.21254406	0.43038385	-0.61790989	-0.55223140	-0.14010712	-0.69688444	-0.08326716	-0.43837755
5170	51.69000000	-0.93441469	-0.16288195	0.06670986	-0.55246874	0.21680274	-0.71521228	-0.19304506	-0.70965618	-0.36563322	-0.83823589	-0.13292957	-0.00064011	-0.64131224	0.49198347	0.15907554	-0.66791370	0.21682705	0.42541342	-0.61749953	-0.53789914	-0.16197856	-0.70061311	-0.08976196	-0.44236406
5171	51.70000000	-0.93365868	-0.16497366	0.06011976	-0.54983832	0.22033831	-0.71595446	-0.20974417	-0.70220539	-0.36336172	-0.84245000	-0.11889824	-0.00342292	-0.64353337	0.49142474	0.14998086	-0.67061805	0.22160388	0.42603250	-0.62299406	-0.51300026	-0.18128312	-0.70059494	-0.08319365	-0.43724116
5172	51.71000000	-0.92960953	-0.16456772	0.06509104	-0.54602641	0.22447916	-0.72040639	-0.22710646	-0.70192484	-0.35182371	-0.84229250	-0.11682193	-0.00549437	-0.64118317	0.49689510	0.15234264	-0.66624523	0.22962187	0.42806154	-0.62700812	-0.49292850	-0.20907485	-0.69800920	-0.08761186	-0.43365083
5173	51.72000000	-0.93215202	-0.16293602	0.06416887	-0.54593744	0.22473816	-0.71740613	-0.25519195	-0.69635153	-0.33798988	-0.84241231	-0.10346114	-0.00587256	-0.63887813	0.50748252	0.14647336	-0.66352447	0.23046884	0.42799275	-0.62503664	-0.47221674	-0.23401883	-0.69405332	-0.08320085	-0.44071483
5174	51.73000000	-0.93148612	-0.16768147	0.06253822	-0.54449154	0.23119251	-0.71384677	-0.28430845	-0.70068110	-0.32089186	-0.84078679	-0.09467697	-0.00646524	-0.63239569	0.50910184	0.13972066	-0.65608117	0.24588513	0.42751388	-0.62100826	-0.44916994	-0.25730153	-0.69612634	-0.08813738	-0.43961777
5175	51.74000000	-0.92705289	-0.17369684	0.06534608	-0.54880909	0.23566163	-0.71830517	-0.31152142	-0.69078378	-0.31382717	-0.84320436	-0.09625270	-0.00891805	-0.63029468	0.51162850	0.13575479	-0.66006521	0.24986125	0.42562109	-0.61400811	-0.42744880	-0.28290770	-0.69629224	-0.08983915	-0.43577415
5176	51.75000000	-0.92715794	-0.17553926	0.06718475	-0.54142177	0.24333540	-0.71360995	-0.33969275	-0.67447525	-0.29506842	-0.84744658	-0.08794501	-0.01076821	-0.62588000	0.51600348	0.13768514	-0.65183456	0.25874985	0.43066851	-0.61857008	-0.41216169	-0.30761086	-0.70113775	-0.08704213	-0.44010541
5177	51.76000000	-0.92487373	-0.17739799	0.06552167	-0.53659124	0.24134210	-0.71463039	-0.37161590	-0.66414808	-0.29616706	-0.84680945	-0.08861452	-0.00631039	-0.62411900	0.52074677	0.13500901	-0.65415853	0.26259196	0.43684575	-0.61441113	-0.38635996	-0.32646864	-0.70311837	-0.08071782	-0.43538023
5178	51.77000000	-0.92524446	-0.17821767	0.07219732	-0.54498207	0.24842220	-0.72096780	-0.40073475	-0.64881236	-0.28719903	-0.84313841	-0.08623940	-0.00674765	-0.62207840	0.52667615	0.13526269	-0.64727741	0.26986413	0.43628140	-0.60810475	-0.37579174	-0.34568464	-0.70043703	-0.08122141	-0.43828134
5179	51.78000000	-0.92671199	-0.18861489	0.06927007	-0.54012629	0.25380044	-0.71423163	-0.42696728	-0.63043297	-0.28149422	-0.84565411	-0.08658769	-0.00917084	-0.61963203	0.52449658	0.14001995	-0.64354037	0.28053595	0.43684727	-0.60088738	-0.35098014	-0.36894562	-0.69614499	-0.08072432	-0.44056625
5180	51.79000000	-0.92721386	-0.19052106	0.06363026	-0.53614979	0.25422907	-0.71937775	-0.46109531	-0.61306597	-0.27797972	-0.84962261	-0.08888762	-0.01061217	-0.61749117	0.52926191	0.14663687	-0.64178518	0.28745820	0.44033273	-0.59917430	-0.33890835	-0.38972310	-0.69934488	-0.07929674	-0.44480254
5181	51.80000000	-0.93048541	-0.19464755	0.07095483	-0.53414425	0.26065190	-0.71624133	-0.48909915	-0.58789509	-0.27918857	-0.84901545	-0.09351747	-0.00361396	-0.61513888	0.53102345	0.15043930	-0.63954228	0.29735112	0.43163717	-0.59516015	-0.31817025	-0.41125690	-0.70290841	-0.08265837	-0.44450035
5182	51.81000000	-0.92484469	-0.19225010	0.07235646	-0.53264956	0.26461069	-0.71317780	-0.52104289	-0.56499585	-0.27984486	-0.84434437	-0.10135703	-0.00124729	-0.61058797	0.53108087	0.15042699	-0.63303561	0.29543341	0.44172774	-0.58928826	-0.30592961	-0.43387178	-0.69906315	-0.07146329	-0.44467605
5183	51.82000000	-0.93054687	-0.19517539	0.07015609	-0.53442072	0.26672411	-0.72439972	-0.54652374	-0.53712928	-0.28090705	-0.84275503	-0.10308043	0.00109875	-0.60637846	0.53361110	0.15474365	-0.63342438	0.30208916	0.44474166	-0.58616131	-0.28709052	-0.44761932	-0.70679719	-0.07212282	-0.44427325
5184	51.83000000	-0.91952546	-0.20103503	0.06789555	-0.53056495	0.27104965	-0.71957335	-0.56815218	-0.50641797	-0.28200539	-0.84237175	-0.10548353	0.00093211	-0.60431415	0.53792989	0.15431864	-0.62851829	0.30195897	0.44067736	-0.58907244	-0.26877100	-0.45422159	-0.70978307	-0.06762600	-0.44280017
5185	51.84000000	-0.92277596	-0.20326044	0.06400884	-0.53236629	0.27298110	-0.72210909	-0.58778014	-0.48367886	-0.28012174	-0.84019175	-0.11447790	-0.00156426	-0.59907452	0.53997539	0.15686101	-0.62509546	0.30938568	0.44271131	-0.59107297	-0.25005574	-0.46517472	-0.70431888	-0.06747494	-0.44950389
5186	51.85000000	-0.92616936	-0.20711683	0.06922509	-0.52915431	0.27474761	-0.71705576	-0.60952258	-0.46161388	-0.27096562	-0.83980655	-0.12678266	-0.00461427	-0.59151426	0.54518314	0.15786437	-0.62443825	0.31714074	0.44086916	-0.59059729	-0.22216293	-0.47066952	-0.71775488	-0.06289853	-0.44951921
5187	51.86000000	-0.92162582	-0.20483907	0.07024398	-0.53676358	0.27292536	-0.71498231	-0.62844937	-0.45177350	-0.25330099	-0.83967752	-0.13473871	0.00493014	-0.59852525	0.55581795	0.15317099	-0.61385070	0.31752242	0.45016955	-0.60158182	-0.18847043	-0.47254796	-0.71257167	-0.05898174	-0.45356412
5188	51.87000000	-0.92015399	-0.20509899	0.06425360	-0.52595484	0.27689179	-0.71564872	-0.64298469	-0.43658283	-0.24367592	-0.83892930	-0.14344526	0.00464912	-0.59079471	0.56043775	0.15552424	-0.61695521	0.32385477	0.45156319	-0.59938578	-0.16616960	-0.48699711	-0.71542771	-0.05886607	-0.44886164
5189	51.88000000	-0.92440280	-0.20978756	0.06863359	-0.53096274	0.27502269	-0.71714991	-0.65165759	-0.41990333	-0.24272941	-0.83215860	-0.15597800	0.00802167	-0.58252912	0.57124297	0.15396958	-0.61381875	0.32367376	0.45193829	-0.59764675	-0.14267932	-0.48690985	-0.71789018	-0.05420634	-0.44658319
5190	51.89000000	-0.92331108	-0.21343201	0.06411957	-0.53060014	0.27936570	-0.71316940	-0.66075665	-0.40330802	-0.24610318	-0.83058413	-0.16589960	0.00977799	-0.57606958	0.57576908	0.15022259	-0.60762727	0.32657786	0.45355665	-0.59185640	-0.13723239	-0.49857166	-0.72256912	-0.04979663	-0.44270090
5191	51.90000000	-0.91706862	-0.21373721	0.06463246	-0.53103498	0.27880423	-0.71704957	-0.67151261	-0.39130988	-0.25246485	-0.83180434	-0.17161256	0.00856185	-0.56951896	0.58677863	0.15603731	-0.60533755	0.33273462	0.44922064	-0.58901548	-0.12945425	-0.51043489	-0.72470384	-0.04280612	-0.44448946
5192	51.91000000	-0.91792653	-0.21740019	0.06438799	-0.53534535	0.27681645	-0.70811001	-0.67786692	-0.38058163	-0.24833518	-0.82600035	-0.17134448	0.01806460	-0.56034965	0.59057450	0.15365370	-0.59943654	0.33280468	0.45409333	-0.57490491	-0.13109875	-0.51454888	-0.72806609	-0.03431428	-0.43792946
5193	51.92000000	-0.92194157	-0.21330169	0.05965604	-0.53694570	0.27666012	-0.71294127	-0.68184855	-0.37141727	-0.24857132	-0.83022031	-0.17132932	0.02226203	-0.55166114	0.59555991	0.15964880	-0.60114408	0.33992610	0.45579976	-0.57596940	-0.12488676	-0.52286615	-0.73684199	-0.02997435	-0.43798123
5194	51.93000000	-0.92203578	-0.21560782	0.05487981	-0.53500882	0.27475765	-0.70792850	-0.67975165	-0.37330590	-0.24371666	-0.82634234	-0.16873714	0.02621414	-0.54299446	0.60726831	0.15140001	-0.59078662	0.34610847	0.45597350	-0.57531732	-0.12526584	-0.52415250	-0.73919894	-0.02366499	-0.42752617
5195	51.94000000	-0.92863337	-0.21320380	0.04926511	-0.53700805	0.27677237	-0.70823832	-0.68178965	-0.36964249	-0.24512195	-0.83289586	-0.16494725	0.02446969	-0.53198370	0.61751598	0.14734764	-0.59575946	0.34797008	0.45808767	-0.57135278	-0.12260042	-0.52248862	-0.74661109	-0.01917022	-0.41294096
5196	51.95000000	-0.92796096	-0.21345259	0.05604929	-0.53509791	0.27216591	-0.70830838	-0.67955494	-0.37848955	-0.25359920	-0.82996745	-0.16472710	0.03323377	-0.52119986	0.62216451	0.14883526	-0.59280576	0.34780961	0.45519996	-0.57149662	-0.12976612	-0.52077514	-0.75338065	-0.01274887	-0.41061578
5197	51.96000000	-0.92594184	-0.21325790	0.05279170	-0.53918511	0.26830374	-0.70966457	-0.67808771	-0.38490320	-0.25279576	-0.82654801	-0.15826940	0.02760335	-0.51480041	0.63324820	0.14117838	-0.59127681	0.34819563	0.45142417	-0.57316815	-0.17007025	-0.49916998	-0.76040817	-0.00529761	-0.39954036
5198	51.97000000	-0.92602401	-0.21119622	0.04610713	-0.53951414	0.26312743	-0.70326606	-0.66076423	-0.39541417	-0.25525398	-0.83119843	-0.15474784	0.02934675	-0.50337385	0.64246505	0.13897686	-0.59623833	0.35232259	0.45567096	-0.58607372	-0.19341353	-0.48831751	-0.76783483	0.00871695	-0.39443068
5199	51.98000000	-0.92611432	-0.21194112	0.04463185	-0.54491044	0.25341133	-0.70993203	-0.65553939	-0.39848120	-0.26445730	-0.83031397	-0.15447311	0.04504600	-0.49034950	0.65759718	0.14048876	-0.60044724	0.35471789	0.44829113	-0.59165925	-0.19426645	-0.47329476	-0.77908770	0.00433941	-0.37352349
5200	51.99000000	-0.92858986	-0.21510016	0.04388387	-0.54352130	0.25576549	-0.70433702	-0.65660950	-0.39388624	-0.27307591	-0.82397936	-0.15316259	0.04971225	-0.47733547	0.66658489	0.13638533	-0.60552284	0.36112678	0.44090631	-0.57518653	-0.21202381	-0.48423566	-0.78549057	0.01793414	-0.35516172
5201	52.00000000	-0.93017489	-0.20967057	0.03280633	-0.55450965	0.25124604	-0.70040914	-0.66490252	-0.38938445	-0.27465970	-0.82225641	-0.16395382	0.06938185	-0.46381094	0.68211285	0.12785204	-0.61157255	0.36556293	0.42806623	-0.57965939	-0.20896761	-0.48837705	-0.79090140	0.02433168	-0.33369037
5202	52.01000000	-0.92546862	-0.22015572	0.03148823	-0.55579059	0.25416533	-0.70003785	-0.66096007	-0.38693179	-0.27332787	-0.82186482	-0.17032743	0.07891012	-0.44403563	0.69070386	0.13613662	-0.61005049	0.36918825	0.42563116	-0.57113277	-0.21117306	-0.49846127	-0.80770373	0.03483109	-0.31866799
5203	52.02000000	-0.92634468	-0.21490079	0.02967737	-0.55325262	0.25797642	-0.69624043	-0.64377831	-0.40973808	-0.27599554	-0.81934508	-0.18293197	0.07229284	-0.43174918	0.70144387	0.13228693	-0.61871293	0.36203154	0.41420887	-0.57365059	-0.21072033	-0.49288602	-0.82014441	0.03911496	-0.27806627
5204	52.03000000	-0.92804127	-0.21381192	0.03319047	-0.54955582	0.26070484	-0.69738004	-0.63727059	-0.43379180	-0.26086774	-0.81709479	-0.18990807	0.07242506	-0.41966723	0.70838337	0.13015918	-0.62045265	0.35841236	0.40523848	-0.57116134	-0.20897871	-0.48537628	-0.82280803	0.04993762	-0.25332474
